<?xml version="1.0" encoding="iso-8859-1"?>
<!-- Generator: Adobe Illustrator 19.0.0, SVG Export Plug-In . SVG Version: 6.00 Build 0)  -->
<svg version="1.1" id="Capa_1" xmlns="http://www.w3.org/2000/svg" xmlns:xlink="http://www.w3.org/1999/xlink" x="0px" y="0px"
	 viewBox="0 0 510.672 510.672" style="enable-background:new 0 0 510.672 510.672;" xml:space="preserve">
<path style="fill:#FC6E51;" d="M455.69,177.141c-10.611-9.896-22.971-19.71-37.176-28.726
	c-39.344-25.216-93.039-44.685-163.178-44.685c-101.019,0-167.884,40.375-207.142,80.031
	c-30.479,30.803-44.205,61.122-44.205,71.575c0,10.449,13.727,40.777,44.206,71.572c39.257,39.662,106.122,80.034,207.141,80.034
	c70.139,0,123.834-19.473,163.178-44.681c14.205-9.023,26.564-18.834,37.176-28.73c35.191-32.953,50.994-66.943,50.994-78.195
	S490.881,210.095,455.69,177.141z"/>
<g style="opacity:0.3;">
	<path style="fill:#FFFFFF;" d="M48.194,207.698c39.257-39.655,106.123-80.03,207.142-80.03c70.139,0,123.834,19.469,163.178,44.685
		c14.205,9.016,26.564,18.83,37.176,28.727c26.604,24.911,42.109,50.4,48.102,66.226c1.934-5.104,2.893-9.222,2.893-11.969
		c0-11.252-15.803-45.241-50.994-78.195c-10.611-9.896-22.971-19.71-37.176-28.726c-39.344-25.216-93.039-44.685-163.178-44.685
		c-101.019,0-167.884,40.375-207.142,80.031c-30.48,30.802-44.206,61.121-44.206,71.574c0,2.735,0.967,6.857,2.903,11.969
		C12.346,252.89,25.69,230.44,48.194,207.698z"/>
</g>
<g style="opacity:0.2;">
	<path d="M462.477,302.979c-39.256,39.646-106.121,80.026-207.141,80.026c-70.138,0-123.838-19.466-163.177-44.681
		c-14.202-9.023-26.568-18.834-37.181-28.73c-26.603-24.912-42.109-50.4-48.098-66.227c-1.932,5.104-2.891,9.226-2.891,11.969
		c0,11.252,15.799,45.242,50.989,78.195c10.613,9.896,22.979,19.707,37.181,28.73c39.339,25.216,93.039,44.681,163.177,44.681
		c101.02,0,167.885-40.38,207.141-80.026c30.477-30.811,44.207-61.123,44.207-71.58c0-2.735-0.967-6.857-2.9-11.969
		C498.33,257.783,484.981,280.232,462.477,302.979z"/>
</g>
<path style="fill:#656D78;" d="M331.459,239.378c-0.109,0-0.211,0.031-0.32,0.031v-0.031H179.533
	c-8.812,0-15.958,7.146-15.958,15.958c0,8.813,7.146,15.959,15.958,15.959h151.606v-0.031c0.109,0,0.211,0.031,0.32,0.031
	c8.812,0,15.957-7.146,15.957-15.959C347.416,246.524,340.272,239.378,331.459,239.378z"/>
<g style="opacity:0.2;">
	<path d="M179.533,247.357h151.606v0.031c0.109,0,0.211-0.031,0.32-0.031c7.426,0,13.613,5.096,15.389,11.969
		c0.336-1.282,0.568-2.604,0.568-3.99c0-8.812-7.145-15.958-15.957-15.958c-0.109,0-0.211,0.031-0.32,0.031v-0.031H179.533
		c-8.812,0-15.958,7.146-15.958,15.958c0,1.387,0.233,2.708,0.564,3.99C165.92,252.453,172.107,247.357,179.533,247.357z"/>
</g>
<g>
	<path style="fill:#E6E9ED;" d="M59.844,337.857c11.399,10.13,24.666,20.019,39.896,29.05v-223.14
		c-15.23,9.027-28.497,18.924-39.896,29.05V337.857z"/>
	<path style="fill:#E6E9ED;" d="M410.932,366.938c2.588-1.535,5.111-3.094,7.582-4.676c12.117-7.699,22.824-15.982,32.314-24.39
		V172.801c-9.49-8.412-20.197-16.695-32.314-24.386c-2.471-1.582-4.994-3.145-7.582-4.68V366.938z"/>
</g>
<g>
	<path style="fill:#FFFFFF;" d="M99.74,167.705v-23.938c-0.023,0.016-0.051,0.031-0.074,0.047
		c-7.578,4.496-14.669,9.203-21.285,14.049c-0.02,0.012-0.039,0.027-0.054,0.039c-3.285,2.408-6.448,4.847-9.499,7.309
		c-0.055,0.047-0.113,0.09-0.168,0.137c-3.055,2.47-5.996,4.959-8.816,7.469v23.938C71.244,186.628,84.51,176.732,99.74,167.705z"/>
	<path style="fill:#FFFFFF;" d="M410.932,143.735v23.938c2.588,1.535,5.111,3.097,7.582,4.679
		c12.117,7.691,22.824,15.974,32.314,24.386V172.8c-2.197-1.944-4.473-3.881-6.795-5.806c-0.482-0.394-0.967-0.787-1.449-1.18
		c-1.994-1.628-4.045-3.25-6.141-4.855c-1.23-0.938-2.51-1.862-3.771-2.789c-1.559-1.149-3.102-2.307-4.723-3.437
		c-3.055-2.139-6.186-4.255-9.436-6.319c-2.471-1.578-4.986-3.137-7.566-4.668C410.947,143.743,410.932,143.739,410.932,143.735z"/>
</g>
<g>
	<path style="fill:#FFCE54;" d="M323.16,231.398v47.875c0,4.388-3.592,7.98-7.98,7.98c-4.387,0-7.979-3.593-7.979-7.98v-46.597
		v-1.278c0-4.387,3.592-7.979,7.979-7.979C319.568,223.419,323.16,227.012,323.16,231.398z"/>
	<path style="fill:#FFCE54;" d="M267.305,232.676v-1.278c0-4.387,3.592-7.979,7.979-7.979c4.389,0,7.98,3.593,7.98,7.979v47.875
		c0,4.388-3.592,7.98-7.98,7.98c-4.387,0-7.979-3.593-7.979-7.98V232.676z"/>
	<path style="fill:#FFCE54;" d="M243.367,231.398v47.875c0,4.388-3.592,7.98-7.979,7.98s-7.979-3.593-7.979-7.98v-46.597v-1.278
		c0-4.387,3.592-7.979,7.979-7.979S243.367,227.012,243.367,231.398z"/>
	<path style="fill:#FFCE54;" d="M203.471,231.398v47.875c0,4.388-3.592,7.98-7.979,7.98c-4.387,0-7.979-3.593-7.979-7.98v-46.597
		v-1.278c0-4.387,3.592-7.979,7.979-7.979C199.878,223.419,203.471,227.012,203.471,231.398z"/>
</g>
<g style="opacity:0.5;">
	<path style="fill:#FFFFFF;" d="M195.492,223.419c-4.387,0-7.979,3.593-7.979,7.979v1.278v6.702c0-4.387,3.592-7.979,7.979-7.979
		c4.387,0,7.979,3.592,7.979,7.979v-7.979C203.471,227.012,199.878,223.419,195.492,223.419z"/>
</g>
<g style="opacity:0.2;">
	<path d="M195.492,287.254c4.387,0,7.979-3.593,7.979-7.98v-1.277v-6.701c0,4.387-3.592,7.979-7.979,7.979
		c-4.387,0-7.979-3.592-7.979-7.979v7.979C187.512,283.661,191.105,287.254,195.492,287.254z"/>
</g>
<g style="opacity:0.5;">
	<path style="fill:#FFFFFF;" d="M235.388,223.419c-4.387,0-7.979,3.593-7.979,7.979v1.278v6.702c0-4.387,3.592-7.979,7.979-7.979
		s7.979,3.592,7.979,7.979v-7.979C243.367,227.012,239.775,223.419,235.388,223.419z"/>
</g>
<g style="opacity:0.2;">
	<path d="M235.388,287.254c4.387,0,7.979-3.593,7.979-7.98v-1.277v-6.701c0,4.387-3.592,7.979-7.979,7.979s-7.979-3.592-7.979-7.979
		v7.979C227.409,283.661,231.001,287.254,235.388,287.254z"/>
</g>
<g style="opacity:0.5;">
	<path style="fill:#FFFFFF;" d="M275.283,223.419c-4.387,0-7.979,3.593-7.979,7.979v1.278v6.702c0-4.387,3.592-7.979,7.979-7.979
		c4.389,0,7.98,3.592,7.98,7.979v-7.979C283.264,227.012,279.672,223.419,275.283,223.419z"/>
</g>
<g style="opacity:0.2;">
	<path d="M275.283,287.254c4.389,0,7.98-3.593,7.98-7.98v-1.277v-6.701c0,4.387-3.592,7.979-7.98,7.979
		c-4.387,0-7.979-3.592-7.979-7.979v7.979C267.305,283.661,270.897,287.254,275.283,287.254z"/>
</g>
<g style="opacity:0.5;">
	<path style="fill:#FFFFFF;" d="M315.18,223.419c-4.387,0-7.979,3.593-7.979,7.979v1.278v6.702c0-4.387,3.592-7.979,7.979-7.979
		c4.389,0,7.98,3.592,7.98,7.979v-7.979C323.16,227.012,319.568,223.419,315.18,223.419z"/>
</g>
<g style="opacity:0.2;">
	<path d="M315.18,287.254c4.389,0,7.98-3.593,7.98-7.98v-1.277v-6.701c0,4.387-3.592,7.979-7.98,7.979
		c-4.387,0-7.979-3.592-7.979-7.979v7.979C307.201,283.661,310.793,287.254,315.18,287.254z"/>
</g>
<g>
	<path style="fill:#3A3847;" d="M506.684,259.326c-2.205,0-3.99-1.785-3.99-3.99c0-9.701-15.016-42.779-49.73-75.285
		c-11.236-10.473-23.549-19.987-36.592-28.266c-45.617-29.245-99.789-44.065-161.035-44.065
		c-104.346,0-168.699,42.877-204.305,78.846c-30.426,30.748-43.053,59.961-43.053,68.77c0,2.205-1.785,3.99-3.99,3.99
		S0,257.541,0,255.336c0-11.852,14.073-42.764,45.358-74.381C82.036,143.903,148.239,99.74,255.336,99.74
		c62.789,0,118.418,15.246,165.336,45.316c13.434,8.532,26.143,18.351,37.746,29.166c35.648,33.386,52.254,68.136,52.254,81.113
		C510.672,257.541,508.889,259.326,506.684,259.326z"/>
	<path style="fill:#3A3847;" d="M255.336,410.932c-107.108,0-173.304-44.166-209.978-81.219C14.072,298.1,0,267.189,0,255.336
		c0-2.205,1.784-3.989,3.989-3.989s3.99,1.784,3.99,3.989c0,8.813,12.627,38.026,43.052,68.767
		c35.603,35.97,99.951,78.851,204.305,78.851c61.232,0,115.41-14.821,161.027-44.05c13.066-8.307,25.379-17.821,36.615-28.286
		c34.699-32.502,49.715-65.58,49.715-75.281c0-2.205,1.785-3.989,3.99-3.989s3.988,1.784,3.988,3.989
		c0,12.975-16.605,47.728-52.254,81.109c-11.588,10.809-24.297,20.627-37.762,29.183
		C373.746,395.69,318.117,410.932,255.336,410.932z"/>
	<path style="fill:#3A3847;" d="M59.844,325.949c-2.206,0-3.99-1.784-3.99-3.989V188.709c0-2.205,1.785-3.99,3.99-3.99
		c2.205,0,3.989,1.785,3.989,3.99V321.96C63.834,324.165,62.049,325.949,59.844,325.949z"/>
	<path style="fill:#3A3847;" d="M99.74,354.999c-2.206,0-3.99-1.784-3.99-3.989V159.663c0-2.205,1.784-3.99,3.99-3.99
		c2.205,0,3.99,1.785,3.99,3.99V351.01C103.73,353.215,101.945,354.999,99.74,354.999z"/>
	<path style="fill:#3A3847;" d="M450.828,325.949c-2.205,0-3.99-1.784-3.99-3.989V188.709c0-2.205,1.785-3.99,3.99-3.99
		s3.99,1.785,3.99,3.99V321.96C454.818,324.165,453.033,325.949,450.828,325.949z"/>
	<path style="fill:#3A3847;" d="M410.932,354.999c-2.205,0-3.99-1.784-3.99-3.989V159.663c0-2.205,1.785-3.99,3.99-3.99
		s3.99,1.785,3.99,3.99V351.01C414.922,353.215,413.137,354.999,410.932,354.999z"/>
	<path style="fill:#3A3847;" d="M179.533,275.284c-10.999,0-19.948-8.945-19.948-19.948c0-10.999,8.95-19.948,19.948-19.948
		c2.205,0,3.99,1.785,3.99,3.99s-1.785,3.989-3.99,3.989c-6.6,0-11.969,5.369-11.969,11.969c0,6.601,5.369,11.969,11.969,11.969
		c2.205,0,3.99,1.785,3.99,3.99S181.738,275.284,179.533,275.284z"/>
	<path style="fill:#3A3847;" d="M331.139,275.284c-2.205,0-3.99-1.784-3.99-3.989s1.785-3.99,3.99-3.99
		c6.6,0,11.969-5.368,11.969-11.969c0-6.6-5.369-11.969-11.969-11.969c-2.205,0-3.99-1.784-3.99-3.989c0-2.206,1.785-3.99,3.99-3.99
		c11.002,0,19.949,8.95,19.949,19.948C351.088,266.339,342.141,275.284,331.139,275.284z"/>
	<path style="fill:#3A3847;" d="M203.471,235.388c-2.205,0-3.99-1.784-3.99-3.989c0-2.201-1.788-3.99-3.989-3.99
		c-2.202,0-3.99,1.789-3.99,3.99c0,2.205-1.784,3.989-3.989,3.989s-3.99-1.784-3.99-3.989c0-6.6,5.369-11.969,11.969-11.969
		c6.6,0,11.969,5.369,11.969,11.969C207.461,233.604,205.676,235.388,203.471,235.388z"/>
	<path style="fill:#3A3847;" d="M195.492,291.243c-6.601,0-11.969-5.369-11.969-11.97c0-2.205,1.785-3.989,3.99-3.989
		s3.989,1.784,3.989,3.989c0,2.198,1.789,3.99,3.99,3.99s3.989-1.792,3.989-3.99c0-2.205,1.785-3.989,3.99-3.989
		c2.206,0,3.99,1.784,3.99,3.989C207.461,285.874,202.091,291.243,195.492,291.243z"/>
	<path style="fill:#3A3847;" d="M187.512,283.264c-2.205,0-3.99-1.784-3.99-3.99v-46.598c0-2.205,1.785-3.99,3.99-3.99
		s3.989,1.785,3.989,3.99v46.597C191.502,281.48,189.717,283.264,187.512,283.264z"/>
	<path style="fill:#3A3847;" d="M203.471,283.264c-2.205,0-3.99-1.784-3.99-3.99v-47.875c0-2.205,1.785-3.99,3.99-3.99
		c2.206,0,3.99,1.785,3.99,3.99v47.875C207.461,281.48,205.676,283.264,203.471,283.264z"/>
	<path style="fill:#3A3847;" d="M243.367,235.388c-2.206,0-3.99-1.784-3.99-3.989c0-2.201-1.788-3.99-3.99-3.99
		c-2.201,0-3.99,1.789-3.99,3.99c0,2.205-1.784,3.989-3.989,3.989s-3.99-1.784-3.99-3.989c0-6.6,5.369-11.969,11.969-11.969
		s11.969,5.369,11.969,11.969C247.357,233.604,245.572,235.388,243.367,235.388z"/>
	<path style="fill:#3A3847;" d="M235.388,291.243c-6.6,0-11.969-5.369-11.969-11.97c0-2.205,1.785-3.989,3.99-3.989
		s3.989,1.784,3.989,3.989c0,2.198,1.789,3.99,3.99,3.99c2.202,0,3.99-1.792,3.99-3.99c0-2.205,1.784-3.989,3.99-3.989
		c2.205,0,3.99,1.784,3.99,3.989C247.357,285.874,241.988,291.243,235.388,291.243z"/>
	<path style="fill:#3A3847;" d="M227.409,283.264c-2.205,0-3.99-1.784-3.99-3.99v-46.598c0-2.205,1.785-3.99,3.99-3.99
		s3.989,1.785,3.989,3.99v46.597C231.398,281.48,229.614,283.264,227.409,283.264z"/>
	<path style="fill:#3A3847;" d="M243.367,283.264c-2.206,0-3.99-1.784-3.99-3.99v-47.875c0-2.205,1.784-3.99,3.99-3.99
		c2.205,0,3.99,1.785,3.99,3.99v47.875C247.357,281.48,245.572,283.264,243.367,283.264z"/>
	<path style="fill:#3A3847;" d="M283.264,235.388c-2.205,0-3.99-1.784-3.99-3.989c0-2.201-1.793-3.99-3.99-3.99
		s-3.988,1.789-3.988,3.99c0,2.205-1.785,3.989-3.99,3.989s-3.99-1.784-3.99-3.989c0-6.6,5.369-11.969,11.969-11.969
		c6.602,0,11.971,5.369,11.971,11.969C287.254,233.604,285.469,235.388,283.264,235.388z"/>
	<path style="fill:#3A3847;" d="M275.283,291.243c-6.6,0-11.969-5.369-11.969-11.97c0-2.205,1.785-3.989,3.99-3.989
		s3.99,1.784,3.99,3.989c0,2.198,1.791,3.99,3.988,3.99s3.99-1.792,3.99-3.99c0-2.205,1.785-3.989,3.99-3.989s3.99,1.784,3.99,3.989
		C287.254,285.874,281.885,291.243,275.283,291.243z"/>
	<path style="fill:#3A3847;" d="M267.305,283.264c-2.205,0-3.99-1.784-3.99-3.99v-46.598c0-2.205,1.785-3.99,3.99-3.99
		s3.99,1.785,3.99,3.99v46.597C271.295,281.48,269.51,283.264,267.305,283.264z"/>
	<path style="fill:#3A3847;" d="M283.264,283.264c-2.205,0-3.99-1.784-3.99-3.99v-47.875c0-2.205,1.785-3.99,3.99-3.99
		s3.99,1.785,3.99,3.99v47.875C287.254,281.48,285.469,283.264,283.264,283.264z"/>
	<path style="fill:#3A3847;" d="M323.16,235.388c-2.205,0-3.99-1.784-3.99-3.989c0-2.201-1.793-3.99-3.99-3.99
		s-3.988,1.789-3.988,3.99c0,2.205-1.785,3.989-3.99,3.989s-3.99-1.784-3.99-3.989c0-6.6,5.369-11.969,11.969-11.969
		c6.602,0,11.969,5.369,11.969,11.969C327.148,233.604,325.365,235.388,323.16,235.388z"/>
	<path style="fill:#3A3847;" d="M315.18,291.243c-6.6,0-11.969-5.369-11.969-11.97c0-2.205,1.785-3.989,3.99-3.989
		s3.99,1.784,3.99,3.989c0,2.198,1.791,3.99,3.988,3.99s3.99-1.792,3.99-3.99c0-2.205,1.785-3.989,3.99-3.989
		s3.988,1.784,3.988,3.989C327.148,285.874,321.781,291.243,315.18,291.243z"/>
	<path style="fill:#3A3847;" d="M307.201,283.264c-2.205,0-3.99-1.784-3.99-3.99v-46.598c0-2.205,1.785-3.99,3.99-3.99
		s3.99,1.785,3.99,3.99v46.597C311.191,281.48,309.406,283.264,307.201,283.264z"/>
	<path style="fill:#3A3847;" d="M323.16,283.264c-2.205,0-3.99-1.784-3.99-3.99v-47.875c0-2.205,1.785-3.99,3.99-3.99
		s3.988,1.785,3.988,3.99v47.875C327.148,281.48,325.365,283.264,323.16,283.264z"/>
	<path style="fill:#3A3847;" d="M219.429,243.367h-7.979c-2.205,0-3.989-1.784-3.989-3.989c0-2.206,1.784-3.99,3.989-3.99h7.979
		c2.205,0,3.99,1.785,3.99,3.99C223.419,241.583,221.634,243.367,219.429,243.367z"/>
	<path style="fill:#3A3847;" d="M219.429,275.284h-7.979c-2.205,0-3.989-1.784-3.989-3.989s1.784-3.99,3.989-3.99h7.979
		c2.205,0,3.99,1.785,3.99,3.99S221.634,275.284,219.429,275.284z"/>
	<path style="fill:#3A3847;" d="M259.326,243.367h-7.98c-2.205,0-3.989-1.784-3.989-3.989c0-2.206,1.784-3.99,3.989-3.99h7.98
		c2.205,0,3.988,1.785,3.988,3.99C263.315,241.583,261.531,243.367,259.326,243.367z"/>
	<path style="fill:#3A3847;" d="M259.326,275.284h-7.98c-2.205,0-3.989-1.784-3.989-3.989s1.784-3.99,3.989-3.99h7.98
		c2.205,0,3.988,1.785,3.988,3.99S261.531,275.284,259.326,275.284z"/>
	<path style="fill:#3A3847;" d="M299.223,243.367h-7.98c-2.205,0-3.988-1.784-3.988-3.989c0-2.206,1.783-3.99,3.988-3.99h7.98
		c2.205,0,3.988,1.785,3.988,3.99C303.211,241.583,301.428,243.367,299.223,243.367z"/>
	<path style="fill:#3A3847;" d="M299.223,275.284h-7.98c-2.205,0-3.988-1.784-3.988-3.989s1.783-3.99,3.988-3.99h7.98
		c2.205,0,3.988,1.785,3.988,3.99S301.428,275.284,299.223,275.284z"/>
	<path style="fill:#3A3847;" d="M347.098,307.201h-7.979c-2.207,0-3.99-1.784-3.99-3.989s1.783-3.989,3.99-3.989h7.979
		c2.205,0,3.99,1.784,3.99,3.989S349.303,307.201,347.098,307.201z"/>
	<path style="fill:#3A3847;" d="M323.877,307.201h-15.234c-2.205,0-3.99-1.784-3.99-3.989s1.785-3.989,3.99-3.989h15.234
		c2.205,0,3.988,1.784,3.988,3.989S326.082,307.201,323.877,307.201z M293.408,307.201h-15.225c-2.213,0-3.99-1.784-3.99-3.989
		s1.777-3.989,3.99-3.989h15.225c2.205,0,3.99,1.784,3.99,3.989S295.613,307.201,293.408,307.201z M262.945,307.201h-15.234
		c-2.205,0-3.99-1.784-3.99-3.989s1.785-3.989,3.99-3.989h15.234c2.209,0,3.986,1.784,3.986,3.989S265.154,307.201,262.945,307.201z
		 M232.477,307.201h-15.233c-2.205,0-3.99-1.784-3.99-3.989s1.785-3.989,3.99-3.989h15.233c2.206,0,3.99,1.784,3.99,3.989
		S234.683,307.201,232.477,307.201z M202.01,307.201h-15.23c-2.205,0-3.99-1.784-3.99-3.989s1.785-3.989,3.99-3.989h15.23
		c2.205,0,3.99,1.784,3.99,3.989S204.215,307.201,202.01,307.201z"/>
	<path style="fill:#3A3847;" d="M171.554,307.201h-7.979c-2.206,0-3.99-1.784-3.99-3.989s1.785-3.989,3.99-3.989h7.979
		c2.205,0,3.99,1.784,3.99,3.989S173.759,307.201,171.554,307.201z"/>
	<path style="fill:#3A3847;" d="M171.554,211.45h-7.979c-2.206,0-3.99-1.784-3.99-3.989c0-2.206,1.785-3.99,3.99-3.99h7.979
		c2.205,0,3.99,1.785,3.99,3.99C175.544,209.666,173.759,211.45,171.554,211.45z"/>
	<path style="fill:#3A3847;" d="M323.893,211.45h-15.227c-2.213,0-3.99-1.784-3.99-3.989c0-2.206,1.777-3.99,3.99-3.99h15.227
		c2.205,0,3.988,1.785,3.988,3.99C327.881,209.666,326.098,211.45,323.893,211.45z M293.424,211.45h-15.225
		c-2.215,0-3.99-1.784-3.99-3.989c0-2.206,1.775-3.99,3.99-3.99h15.225c2.213,0,3.99,1.785,3.99,3.99S295.637,211.45,293.424,211.45
		z M262.961,211.45h-15.234c-2.205,0-3.99-1.784-3.99-3.989c0-2.206,1.785-3.99,3.99-3.99h15.234c2.209,0,3.986,1.785,3.986,3.99
		S265.17,211.45,262.961,211.45z M232.493,211.45h-15.229c-2.205,0-3.99-1.784-3.99-3.989c0-2.206,1.785-3.99,3.99-3.99h15.229
		c2.206,0,3.99,1.785,3.99,3.99S234.698,211.45,232.493,211.45z M202.029,211.45h-15.233c-2.205,0-3.99-1.784-3.99-3.989
		c0-2.206,1.785-3.99,3.99-3.99h15.233c2.206,0,3.99,1.785,3.99,3.99S204.234,211.45,202.029,211.45z"/>
	<path style="fill:#3A3847;" d="M347.098,211.45h-7.979c-2.207,0-3.99-1.784-3.99-3.989c0-2.206,1.783-3.99,3.99-3.99h7.979
		c2.205,0,3.99,1.785,3.99,3.99C351.088,209.666,349.303,211.45,347.098,211.45z"/>
</g>
<g>
</g>
<g>
</g>
<g>
</g>
<g>
</g>
<g>
</g>
<g>
</g>
<g>
</g>
<g>
</g>
<g>
</g>
<g>
</g>
<g>
</g>
<g>
</g>
<g>
</g>
<g>
</g>
<g>
</g>
</svg>
